FILE "IEV.iso" BINARY
  TRACK 01 MODE1/2048
    INDEX 01 00:00:00 
FILE "Track02.ogg" WAVE
  TRACK 02 AUDIO
    INDEX 01 00:00:00 
FILE "Track03.ogg" WAVE
  TRACK 03 AUDIO
    INDEX 01 00:00:00 
FILE "Track04.ogg" WAVE
  TRACK 04 AUDIO
    INDEX 01 00:00:00 
FILE "Track05.ogg" WAVE
  TRACK 05 AUDIO
    INDEX 01 00:00:00 
FILE "Track06.ogg" WAVE
  TRACK 06 AUDIO
    INDEX 01 00:00:00 
FILE "Track07.ogg" WAVE
  TRACK 07 AUDIO
    INDEX 01 00:00:00 